<?xml version="1.0" encoding="utf-8"?>
<!-- Generator: Adobe Illustrator 18.1.1, SVG Export Plug-In . SVG Version: 6.00 Build 0)  -->
<svg version="1.1" preserveAspectRatio="xMinYMin meet" xmlns="http://www.w3.org/2000/svg" xmlns:xlink="http://www.w3.org/1999/xlink" x="0px" y="0px"
	 viewBox="0 0 572.9 157.5" enable-background="new 0 0 572.9 157.5" xml:space="preserve">
<g>
	<path fill="#8C8C8C" d="M309.1,156h-4.6l0.2-1l-0.1,0c-1,0.9-2.2,1.4-3.8,1.4c-3.4,0-5.9-2.6-5.9-6.6c0-2.5,1-5,2.8-6.9
		c1.6-1.6,4-2.5,6.6-2.5c2.6,0,5.1,0.8,7.2,1.8L309.1,156z M306.3,144.8c-0.6-0.3-1.5-0.5-2.4-0.5c-1.5,0-2.4,0.7-3.1,1.4
		c-0.8,0.9-1.2,2.3-1.2,3.5c0,2.1,1.1,3.3,2.8,3.3c1,0,1.9-0.4,2.7-1.1L306.3,144.8z"/>
	<path fill="#8C8C8C" d="M314.6,140.7h4.6l-0.2,1.4l0.1,0c1.6-1.4,3.4-1.8,4.7-1.8c3,0,4.7,1.9,4.7,4.8c0,0.5-0.1,1.1-0.2,1.9
		l-1.6,9H322l1.5-8.7c0.1-0.3,0.1-0.8,0.1-1.1c0-1-0.6-1.8-1.9-1.8c-1.1,0-2.4,0.5-3.3,1.3l-1.8,10.3h-4.7L314.6,140.7z"/>
	<path fill="#8C8C8C" d="M338.8,133.2h6.5l-4,22.8h-6.5L338.8,133.2z"/>
	<path fill="#8C8C8C" d="M348.7,133.2h6.5l-4,22.8h-6.5L348.7,133.2z"/>
	<path fill="#8C8C8C" d="M364.2,138.7h-7.2l1-5.5h20.8l-1,5.5h-7.2l-3.1,17.4h-6.5L364.2,138.7z"/>
	<path fill="#8C8C8C" d="M380.2,140.7h4.7l-2.7,15.3h-4.7L380.2,140.7z M383.5,133.2c1.5,0,2.6,1.2,2.6,2.6c0,1.7-1.3,2.9-3,2.9
		c-1.5,0-2.6-1.2-2.6-2.6C380.6,134.4,381.9,133.2,383.5,133.2z"/>
	<path fill="#8C8C8C" d="M400,156h-4.6l0.2-1l-0.1,0c-1,0.9-2.2,1.4-3.8,1.4c-3.4,0-5.9-2.6-5.9-6.6c0-2.5,1-5,2.8-6.9
		c1.7-1.6,4-2.5,6.6-2.5c2.6,0,5.1,0.8,7.2,1.8L400,156z M397.2,144.8c-0.6-0.3-1.5-0.5-2.4-0.5c-1.5,0-2.4,0.7-3.1,1.4
		c-0.8,0.9-1.2,2.3-1.2,3.5c0,2.1,1.1,3.3,2.8,3.3c1,0,1.9-0.4,2.7-1.1L397.2,144.8z"/>
	<path fill="#8C8C8C" d="M405.5,140.7h4.6l-0.2,1.4l0.1,0c1.6-1.4,3.4-1.8,4.7-1.8c3,0,4.7,1.9,4.7,4.8c0,0.5-0.1,1.1-0.2,1.9
		l-1.6,9h-4.7l1.5-8.7c0.1-0.3,0.1-0.8,0.1-1.1c0-1-0.6-1.8-1.9-1.8c-1.1,0-2.4,0.5-3.3,1.3l-1.8,10.3h-4.7L405.5,140.7z"/>
	<path fill="#8C8C8C" d="M431.7,133.5h4.9l-4,22.5h-4.9L431.7,133.5z"/>
	<path fill="#8C8C8C" d="M438.5,140.7h4.6l-0.2,1.4l0.1,0c1.6-1.4,3.4-1.8,4.7-1.8c3,0,4.7,1.9,4.7,4.8c0,0.5-0.1,1.1-0.2,1.9
		l-1.6,9h-4.7l1.5-8.7c0.1-0.3,0.1-0.8,0.1-1.1c0-1-0.6-1.8-1.9-1.8c-1.1,0-2.4,0.5-3.3,1.3l-1.8,10.3h-4.7L438.5,140.7z"/>
	<path fill="#8C8C8C" d="M456.4,140.7h4.7l-2.7,15.3h-4.7L456.4,140.7z M459.8,133.2c1.5,0,2.6,1.2,2.6,2.6c0,1.6-1.3,2.8-2.9,2.8
		c-1.5,0-2.6-1.2-2.6-2.6C456.9,134.4,458.2,133.2,459.8,133.2z"/>
	<path fill="#8C8C8C" d="M463.9,149.8l0.9-5.1h-2.5l0.7-3.9h2.5l0.7-4.2l4.8-0.3l-0.8,4.5h4l-0.7,3.9h-4l-0.9,5
		c-0.1,0.3-0.1,0.8-0.1,1.1c0,1.1,0.6,1.7,1.7,1.7c0.7,0,1.4-0.2,2-0.5l-0.7,4.1c-0.7,0.2-1.6,0.4-2.6,0.4c-2.7,0-5.3-1.3-5.3-4.6
		C463.6,151.2,463.7,150.5,463.9,149.8z"/>
	<path fill="#8C8C8C" d="M476.3,140.7h4.7l-2.7,15.3h-4.7L476.3,140.7z M479.7,133.2c1.5,0,2.6,1.2,2.6,2.6c0,1.6-1.3,2.8-2.9,2.8
		c-1.5,0-2.6-1.2-2.6-2.6C476.8,134.4,478.1,133.2,479.7,133.2z"/>
	<path fill="#8C8C8C" d="M496.1,156h-4.6l0.2-1l-0.1,0c-1,0.9-2.2,1.4-3.8,1.4c-3.4,0-5.9-2.6-5.9-6.6c0-2.5,1-5,2.8-6.9
		c1.7-1.6,4-2.5,6.6-2.5c2.6,0,5.1,0.8,7.2,1.8L496.1,156z M493.3,144.8c-0.6-0.3-1.5-0.5-2.4-0.5c-1.5,0-2.4,0.7-3.1,1.4
		c-0.8,0.9-1.2,2.3-1.2,3.5c0,2.1,1.1,3.3,2.8,3.3c1,0,1.9-0.4,2.7-1.1L493.3,144.8z"/>
	<path fill="#8C8C8C" d="M501.6,149.8l0.9-5.1H500l0.7-3.9h2.5l0.7-4.2l4.8-0.3l-0.8,4.5h4l-0.7,3.9h-4l-0.9,5
		c-0.1,0.3-0.1,0.8-0.1,1.1c0,1.1,0.6,1.7,1.7,1.7c0.7,0,1.4-0.2,2-0.5l-0.7,4.1c-0.7,0.2-1.6,0.4-2.6,0.4c-2.7,0-5.3-1.3-5.3-4.6
		C501.4,151.2,501.5,150.5,501.6,149.8z"/>
	<path fill="#8C8C8C" d="M514.1,140.7h4.7l-2.7,15.3h-4.7L514.1,140.7z M517.5,133.2c1.5,0,2.6,1.2,2.6,2.6c0,1.6-1.3,2.8-2.9,2.8
		c-1.5,0-2.6-1.2-2.6-2.6C514.6,134.4,515.9,133.2,517.5,133.2z"/>
	<path fill="#8C8C8C" d="M520.1,140.7h4.8l1,5.1c0.3,1.6,0.6,3.1,0.8,4.6h0.1c0.8-1.6,1.7-3.1,2.6-4.7l2.7-5h4.9l-9,15.3h-4.5
		L520.1,140.7z"/>
	<path fill="#8C8C8C" d="M538.1,142.9c1.6-1.6,3.7-2.5,6-2.5c3.6,0,6.8,2.2,6.8,6.4c0,0.8-0.1,2-0.4,2.8h-10.4
		c0.2,2.1,1.8,3.1,3.9,3.1c1.7,0,3.8-0.7,5.2-1.4l-0.8,4.1c-1.4,0.6-3.3,1-5,1c-4.2,0-7.9-2.2-7.9-6.9
		C535.5,147.1,536.4,144.6,538.1,142.9z M540.5,146.6h6.1c0-1.7-1.1-2.6-2.7-2.6C542.3,144,541.1,145.1,540.5,146.6z"/>
</g>
<path fill="#0B4B68" d="M409.5,59.1c-9.9,0-18.9,3.3-25.4,9.7c-6.6,6.5-9.9,15.6-9.9,24c0,10,4.7,17.6,12,22.1c4-6,10.6-9.5,19-9.1
	c7.2,0.4,13.3,4.6,16.6,10.3c3.2-1.5,6-3.5,8.5-6c6.6-6.5,9.9-15.6,9.9-24C440.2,69.1,426.6,59.1,409.5,59.1z M418.3,89.5
	c-0.6,6.7-4.9,11.3-11.1,11.4c-7.6,0.1-11.5-4.9-11.1-11.4c0.4-6.3,5-11.3,11.1-11.4C415.1,78.1,418.8,83.3,418.3,89.5z"/>
<g id="XMLID_1_">
	<g>
		<path fill="#0B4B68" d="M506.8,77.4c0,2-0.2,4.1-0.6,6.3l-6.1,34.8h-23.4l5.8-32.8c0.1-0.6,0.2-1.5,0.2-2.2c0-3-1.8-5.1-5.3-5.1
			c-2.5,0-5.2,0.9-7.6,2.7l-6.6,37.4H440c0,0,7.3-41.2,7.5-43c0.6-5,0.5-6.9,0.4-8.5c-0.1-2.1-0.5-3.9-0.5-3.9l24.6-3.3
			c0,0,0.5,1,0.7,3.3c0.1,1.1,0,1.5,0,1.5c5.7-4.4,10.5-5.5,15.5-5.5C499.7,59.1,506.8,66.9,506.8,77.4z"/>
	</g>
	<g>
	</g>
</g>
<path fill="#0B4B68" d="M520.6,67.5c5.8-5.2,13.8-8.4,22.8-8.4c14.1,0,27.9,9.6,25.2,24.8c-1.7,9.5-8.5,12.2-20.7,13.9
	c-9,1.3-16.8-0.3-16.8-0.3c0.7,3.2,2,5.5,10.4,6.2c8.3,0.7,16.6-0.7,22.6-3.1l-3.8,16.3c-4.6,2-11.6,3.1-18.9,2.9
	c-17.4-0.5-32.1-8-32.1-26.2C509.1,84.2,513,74.2,520.6,67.5z M531.6,82.8c0,0,14.7,2.6,17.8-2c2.6-3.8-2.9-7-8.5-5.4
	C536.7,76.6,533.2,78.8,531.6,82.8z"/>
<g>
	<polygon fill="#0B4B68" points="34,119.5 27.7,79.7 4,119.5 	"/>
	<polygon fill="#0B4B68" points="86.2,74.8 74.4,1.1 30.5,74.8 	"/>
</g>
<g>
	<path fill="#80ADB7" d="M137,119.5l-2.2-14.6h-25.6l-8.4,14.6H87.6l43.8-73l4.1,0l14.8,73H137z M129.3,68.7l-14.7,26.7h18.8
		L129.3,68.7z"/>
	<path fill="#80ADB7" d="M189.2,81.5c-3.9-3.4-7.5-5.1-10.7-5.1c-2,0-3.8,0.5-5.2,1.4c-1.5,0.9-2.2,2.2-2.2,3.7
		c0,1.9,1.8,3.8,5.3,5.6c3.5,1.8,6.2,3.2,8.1,4.3c1.9,1.1,3.4,2.5,4.6,4.3c1.2,1.8,1.8,3.9,1.8,6.2c0,5.8-2.2,10.3-6.5,13.6
		c-4.3,3.3-9.8,5-16.5,5c-5.7,0-11.3-1.6-16.8-4.8l6.4-11.1c4.1,3.8,8.1,5.8,12,5.8c2.5,0,4.5-0.6,6.1-1.9s2.4-2.9,2.4-5
		c0-1.8-1.5-3.4-4.6-5c-3.1-1.6-5.8-3.1-8.1-4.4s-4.1-2.9-5.3-4.8s-1.8-4-1.8-6.3c0-5.1,2-9.1,6.1-12.1c4.1-3,9-4.5,14.9-4.5
		c4,0,9.3,1.4,15.7,4.1L189.2,81.5z"/>
	<path fill="#80ADB7" d="M206.4,118l-3.9,21.9h-12.2l10.5-56.6c0.4-2.1,0.6-4.2,0.6-6.3c0-2.9-0.3-5.7-0.9-8.6l11.9-2.1
		c0.5,1.2,0.8,2.9,1.1,5c4.5-3.4,9-5,13.5-5c14,0,20.9,6.8,20.9,20.3c0,9.9-2.9,18.1-8.6,24.4c-5.7,6.3-13.3,9.5-22.7,9.5
		C212.9,120.4,209.5,119.6,206.4,118z M208.3,107.6c1.6,1.7,4,2.5,7.1,2.5c6.4,0,11.3-1.9,14.7-5.8c3.4-3.9,5.1-9.4,5.1-16.6
		c0-3.3-1-6-3.1-8s-4.9-3-8.4-3c-1.6,0-3.5,0.5-5.6,1.6c-2.2,1.1-3.8,2.2-4.9,3.5L208.3,107.6z"/>
	<path fill="#80ADB7" d="M264.7,119.5h-12.4l7.9-42.5h-6.7l2.1-9.8h18.9L264.7,119.5z M258.9,52.4c0-2.5,0.9-4.5,2.6-6.2
		c1.7-1.6,3.9-2.5,6.4-2.5c2.5,0,4.6,0.8,6.4,2.5c1.8,1.6,2.7,3.7,2.7,6.2c0,2.4-0.9,4.5-2.7,6.1c-1.8,1.7-3.9,2.5-6.4,2.5
		c-2.5,0-4.6-0.8-6.4-2.5C259.8,56.9,258.9,54.8,258.9,52.4z"/>
	<path fill="#80ADB7" d="M314.4,79.6c-2.9-2.1-5.5-3.2-7.7-3.2c-3.2,0-6,1.4-8.7,4.1c-2.6,2.8-4.3,5.9-5,9.4l-5.5,29.5h-12.3
		l9.8-52.3h12.3l-0.8,4.5c4.3-3.7,9.1-5.5,14.4-5.5c1.3,0,3.7,0.3,7.2,0.9L314.4,79.6z"/>
	<path fill="#80ADB7" d="M327.9,96.7c-0.1,0.8-0.1,1.6-0.1,2.2c0,3.6,1.1,6.4,3.2,8.4c2.2,2,5.2,2.9,9,2.9c2.1,0,5.2-0.7,7.2-1.3
		c2.3-0.6,5.9-2.2,7.4-3.6l-2.7,12.3c-4.1,1.9-9.2,2.8-15.1,2.8c-6.4,0-11.7-2-15.7-6.1c-4-4.1-6-9.7-6-16.7c0-9,2.9-16.5,8.7-22.4
		c5.8-6,13.3-9,22.7-9c5.5,0,10,1.2,13.4,3.5c3.4,2.3,5.1,5.7,5.1,10c0,5.9-2.5,10.5-7.6,13.9c-5.1,3.4-11.4,5-18.8,5
		C335,98.6,331.4,98,327.9,96.7z M330.3,87.5c2.1,0.6,4.4,0.9,6.9,0.9c4.4,0,8.2-0.7,11.2-2c3.1-1.4,4.6-3.3,4.6-5.8
		c0-2.8-3.1-4.2-9.3-4.2c-2.4,0-4.9,1.1-7.5,3.2C333.7,81.7,331.7,84.3,330.3,87.5z"/>
</g>
</svg>
