<?xml version="1.0" encoding="utf-8"?>
<!-- Generator: Adobe Illustrator 18.1.1, SVG Export Plug-In . SVG Version: 6.00 Build 0)  -->
<svg version="1.1" id="Layer_1" xmlns="http://www.w3.org/2000/svg" xmlns:xlink="http://www.w3.org/1999/xlink" x="0px" y="0px"
	 viewBox="0 0 50 50" enable-background="new 0 0 50 50" xml:space="preserve">
<g>
	<path fill="#EEEEEE" d="M24.8,11.9c-4.2,0-7.7,3.4-7.7,7.7s3.4,7.7,7.7,7.7c4.2,0,7.7-3.5,7.7-7.7S29,11.9,24.8,11.9z"/>
	<path fill="#EEEEEE" d="M-0.1-0.1V50H50V-0.1H-0.1z M36.6,21.1c-1,9.3-10.9,20.1-10.9,20.1c-0.2,0.2-0.4,0.3-0.5,0.4h0l-0.3,0.1
		l-0.3-0.1h0c-0.2-0.1-0.3-0.2-0.5-0.4c0,0-10.1-10.8-11.1-20.1c-0.1-0.5-0.1-1-0.1-1.5c0-6.6,5.4-12,12-12c6.6,0,12,5.4,12,12
		C36.7,20.1,36.7,20.6,36.6,21.1z"/>
</g>
</svg>
