<?xml version="1.0" standalone="no"?>
<!DOCTYPE svg PUBLIC "-//W3C//DTD SVG 20010904//EN"
 "http://www.w3.org/TR/2001/REC-SVG-20010904/DTD/svg10.dtd">
<svg version="1.0" xmlns="http://www.w3.org/2000/svg"
 width="600.000000pt" height="366.000000pt" viewBox="0 0 600.000000 366.000000"
 preserveAspectRatio="xMidYMid meet">
<metadata>
Created by potrace 1.10, written by Peter Selinger 2001-2011
</metadata>
<g transform="translate(0.000000,366.000000) scale(0.100000,-0.100000)"
fill="#0e29b6" stroke="none">
<path d="M3563 3240 c-49 -30 -66 -63 -60 -116 2 -24 13 -54 23 -65 24 -27 87
-59 114 -59 26 0 93 42 114 72 19 27 21 93 3 127 -29 56 -133 78 -194 41z"/>
<path d="M4085 3244 c-27 -7 -63 -14 -80 -14 -51 -1 -53 -4 -45 -140 5 -69 11
-305 14 -525 8 -453 7 -447 86 -500 43 -28 50 -30 143 -29 55 1 103 6 109 12
8 8 7 24 -3 56 -11 37 -19 47 -51 59 -24 10 -42 26 -50 44 -9 20 -13 165 -15
528 -2 275 -6 506 -8 513 -5 15 -36 14 -100 -4z"/>
<path d="M4585 3245 c-27 -7 -66 -16 -85 -19 l-35 -6 3 -527 3 -526 27 -41
c15 -23 48 -52 72 -66 39 -21 57 -24 138 -24 51 1 98 6 103 11 6 6 7 28 3 53
-6 38 -12 44 -48 61 -74 33 -71 6 -74 568 -2 345 -6 509 -14 518 -13 16 -27
15 -93 -2z"/>
<path d="M360 2877 c-47 -12 -88 -26 -92 -31 -3 -5 -2 -21 4 -35 18 -47 21
-112 22 -431 l1 -315 99 -3 c55 -1 103 1 108 6 5 5 9 135 8 289 -1 286 4 329
37 339 10 3 34 14 54 25 56 29 114 25 150 -10 l29 -29 0 -311 0 -311 94 0 c53
0 98 4 101 10 3 6 6 133 6 283 -1 304 0 308 64 344 91 51 148 58 181 22 18
-20 19 -44 24 -338 l5 -316 100 0 100 0 0 366 c0 413 6 382 -80 438 -37 24
-48 26 -150 25 -118 -1 -138 -7 -216 -67 -45 -34 -51 -34 -91 2 -62 53 -95 65
-193 65 -90 0 -116 -7 -193 -55 -22 -13 -25 -12 -55 22 l-32 37 -85 -21z"/>
<path d="M1936 2893 c-39 -6 -129 -56 -172 -95 -19 -17 -53 -70 -77 -117 l-42
-86 0 -126 c0 -72 5 -136 11 -150 6 -13 21 -46 34 -74 41 -90 113 -150 225
-190 47 -17 260 -21 270 -5 3 6 13 10 22 10 53 0 170 97 210 174 44 85 60 272
33 386 -17 73 -71 153 -134 198 -88 64 -119 74 -241 77 -60 2 -123 1 -139 -2z
m187 -155 c28 -15 42 -33 70 -88 19 -40 22 -61 22 -180 0 -127 -2 -138 -28
-196 -28 -60 -54 -82 -114 -99 -25 -7 -101 24 -124 52 -39 48 -44 73 -44 242
0 185 6 207 67 255 37 29 111 36 151 14z"/>
<path d="M3616 2889 c-38 -5 -75 -14 -83 -20 -11 -10 -13 -85 -11 -408 l3
-396 110 0 110 0 3 409 c2 321 0 411 -10 418 -15 9 -28 9 -122 -3z"/>
<path d="M5230 2894 c-36 -7 -120 -33 -160 -51 -33 -14 -100 -45 -109 -51 -3
-1 5 -16 17 -32 12 -16 22 -33 22 -37 1 -4 11 -21 24 -37 20 -24 29 -27 51
-22 15 4 34 14 42 21 8 8 23 15 34 15 11 0 31 7 44 16 27 18 138 30 178 20 33
-8 63 -51 71 -103 8 -57 -9 -73 -78 -73 -76 0 -233 -26 -286 -47 -186 -74
-215 -340 -49 -443 117 -71 315 -66 418 12 31 23 47 23 69 -3 9 -12 34 -32 55
-46 44 -28 44 -28 119 50 l48 49 -28 28 c-54 55 -52 43 -52 314 0 140 -4 266
-9 279 -15 39 -70 96 -115 118 -33 17 -64 22 -161 24 -66 2 -131 1 -145 -1z
m196 -485 c7 -12 6 -162 -2 -182 -7 -21 -96 -57 -138 -57 -54 0 -106 54 -106
110 0 50 28 109 55 115 11 2 38 8 60 13 56 14 123 14 131 1z"/>
<path d="M2646 2883 c-3 -4 -6 -35 -6 -70 l0 -63 173 0 c196 0 223 -7 198 -53
-7 -14 -26 -39 -42 -57 -16 -17 -29 -34 -29 -38 0 -4 -22 -32 -50 -62 -27 -30
-50 -59 -50 -64 0 -6 -13 -24 -29 -41 -15 -16 -67 -78 -115 -138 l-86 -107 0
-65 0 -65 333 0 333 0 23 51 c12 29 20 57 18 64 -4 9 -51 11 -181 8 -181 -4
-216 1 -216 34 0 9 12 29 26 44 15 15 32 37 38 48 6 11 38 54 71 96 33 43 71
92 85 110 14 18 58 76 98 128 l72 95 0 76 0 76 -329 -1 c-181 0 -331 -3 -335
-6z"/>
<path d="M302 1895 l0 -35 342 -2 341 -3 3 -96 c3 -111 7 -106 -92 -116 -34
-3 -66 -10 -72 -15 -7 -5 -29 -7 -50 -4 -22 2 -54 -2 -73 -10 -18 -8 -46 -14
-60 -14 -18 0 -45 -16 -82 -49 l-54 -48 -2 -73 c-2 -59 2 -81 19 -112 28 -49
39 -48 37 5 -3 71 17 102 125 192 61 51 67 55 94 55 12 0 22 5 22 10 0 19 53
31 163 35 103 5 112 4 134 -17 l23 -21 0 116 c0 63 4 127 10 141 l10 26 285 0
c270 0 311 4 270 28 -10 5 8 8 50 9 36 1 68 -3 71 -8 3 -5 -11 -9 -31 -9 -20
0 -45 -5 -56 -10 -18 -10 -19 -25 -19 -365 0 -301 2 -356 15 -369 8 -8 15 -24
15 -35 0 -11 7 -26 15 -35 8 -8 15 -22 15 -30 0 -9 5 -16 10 -16 13 0 50 -37
50 -50 0 -5 5 -10 11 -10 6 0 27 -13 46 -30 18 -16 45 -30 58 -30 13 0 27 -4
30 -10 8 -14 64 -37 105 -45 31 -5 29 -2 -27 31 -35 19 -63 42 -63 49 0 7 -7
15 -15 19 -8 3 -15 17 -15 30 0 15 -8 30 -20 36 -19 10 -19 21 -17 429 2 389
1 420 -15 430 -10 6 -25 11 -33 11 -8 0 -15 5 -15 10 0 17 39 11 60 -10 20
-20 36 -20 1357 -22 l1338 -3 3 -176 2 -175 -27 -13 c-16 -7 -34 -16 -41 -20
-21 -10 -19 -26 4 -29 11 -2 27 4 34 13 7 8 22 15 34 15 11 0 34 7 50 15 15 8
50 15 76 15 29 0 54 6 63 14 8 8 31 18 51 21 20 4 39 11 42 16 3 5 54 9 113 9
108 0 187 -16 222 -46 8 -8 21 -14 27 -14 7 0 26 -12 42 -27 27 -23 30 -33 30
-84 0 -31 -3 -64 -6 -73 -8 -21 -77 -22 -94 -1 -7 8 -22 15 -34 15 -12 0 -28
6 -35 13 -8 8 -56 12 -166 12 -110 0 -158 -4 -166 -12 -7 -7 -25 -13 -39 -13
-14 0 -35 -7 -46 -15 -10 -8 -34 -15 -52 -15 -20 0 -35 -6 -38 -15 -4 -8 -15
-15 -25 -15 -11 0 -22 -7 -25 -15 -4 -8 -14 -15 -23 -15 -16 0 -88 -62 -122
-106 -23 -29 -41 -108 -31 -135 8 -21 9 -21 21 12 12 34 106 129 128 129 7 0
16 6 20 13 4 6 26 20 48 31 22 10 47 22 55 27 8 5 22 12 30 15 8 3 28 12 43
20 43 22 338 20 372 -2 14 -9 36 -14 50 -11 18 3 29 -1 36 -14 5 -11 20 -19
33 -19 29 0 66 -39 66 -71 0 -26 -25 -69 -41 -69 -5 0 -18 -8 -28 -18 -39 -34
-50 -42 -65 -42 -8 0 -17 -4 -20 -9 -11 -16 -92 -51 -119 -51 -15 0 -30 -7
-33 -15 -3 -8 -26 -17 -52 -21 -26 -3 -52 -10 -58 -15 -6 -5 -91 -10 -190 -11
-153 -3 -176 -5 -156 -16 12 -7 45 -16 72 -19 28 -3 50 -9 50 -13 0 -4 20 -11
45 -14 24 -4 47 -11 50 -17 4 -5 21 -9 39 -9 47 0 216 27 249 39 16 6 38 11
50 11 12 0 33 6 47 14 94 50 107 55 128 49 15 -4 25 -15 29 -34 4 -23 11 -29
32 -29 15 0 43 -14 64 -31 l37 -31 0 275 c-1 199 -5 290 -15 333 -8 32 -14 70
-15 82 0 35 -86 132 -116 132 -13 0 -24 4 -24 10 0 5 -17 12 -37 15 -21 4 -52
13 -70 21 -44 20 -157 19 -177 -2 -9 -8 -32 -17 -51 -19 -20 -2 -41 -8 -48
-13 -14 -12 -138 -18 -155 -8 -13 8 -17 210 -6 240 5 14 52 16 419 16 l413 0
0 35 0 35 -2643 0 -2643 0 0 -35z m828 -5 c0 -13 -49 -30 -55 -20 -4 6 -20 10
-36 10 -17 0 -28 4 -24 10 6 10 115 10 115 0z m908 3 c-10 -2 -28 -2 -40 0
-13 2 -5 4 17 4 22 1 32 -1 23 -4z m2490 0 c-10 -2 -28 -2 -40 0 -13 2 -5 4
17 4 22 1 32 -1 23 -4z m198 -5 c3 -4 -13 -9 -35 -9 -23 -1 -46 -2 -53 -3 -6
-1 -13 5 -16 12 -3 9 10 12 47 11 29 -1 54 -6 57 -11z m-3652 -207 c-8 -39
-30 -35 -25 5 4 37 11 48 22 37 5 -5 6 -24 3 -42z m3614 6 c3 -40 -12 -51 -22
-14 -10 36 -7 59 7 55 6 -3 13 -21 15 -41z m-2910 -137 c1 -27 -3 -50 -9 -50
-5 0 -9 23 -9 50 0 28 4 50 9 50 5 0 9 -22 9 -50z m2907 -10 c3 -5 -3 -10 -15
-10 -12 0 -18 5 -15 10 3 6 10 10 15 10 5 0 12 -4 15 -10z m705 -56 c0 -8 -4
-14 -10 -14 -5 0 -10 9 -10 21 0 11 5 17 10 14 6 -3 10 -13 10 -21z m20 -143
c0 -19 -23 -35 -34 -24 -7 8 12 43 24 43 6 0 10 -9 10 -19z m-696 -97 c3 -9
-1 -14 -14 -14 -21 0 -34 15 -25 30 7 12 32 2 39 -16z"/>
<path d="M3758 1664 c-4 -3 -45 -5 -92 -5 -76 1 -87 -1 -96 -19 -6 -11 -20
-20 -30 -20 -11 0 -20 -4 -20 -10 0 -5 -12 -10 -26 -10 -16 0 -37 -11 -50 -26
-29 -31 -29 -32 -1 -37 12 -2 0 -4 -28 -3 -42 1 -50 -2 -49 -16 1 -13 -6 -18
-27 -19 -16 -1 -35 -2 -41 -3 -9 -1 -15 23 -18 77 l-5 78 -62 3 -63 2 0 -391
c0 -367 1 -393 18 -408 10 -10 32 -17 49 -17 18 0 33 -6 37 -15 3 -8 10 -15
16 -15 6 0 10 69 10 199 0 136 3 200 11 203 6 2 13 25 16 50 4 35 13 53 35 73
19 17 27 32 23 44 -4 13 5 25 30 42 23 16 35 32 35 47 0 17 7 24 29 28 17 4
31 13 33 21 3 14 57 51 106 73 12 5 22 14 22 18 0 5 24 12 53 16 28 4 67 12
84 18 25 9 44 9 80 0 27 -6 71 -14 98 -18 l50 -6 -35 20 c-35 19 -180 39 -192
26z m-501 -415 c-6 -10 -13 -15 -15 -9 -6 17 7 42 18 35 6 -4 5 -13 -3 -26z"/>
<path d="M1335 1624 c-17 -8 -34 -19 -39 -24 -14 -14 1 -25 16 -12 10 7 25 3
56 -15 23 -14 42 -29 42 -35 0 -5 8 -20 18 -33 15 -19 21 -21 35 -10 9 7 17
16 17 20 0 4 7 13 17 20 15 11 15 14 -3 38 -10 15 -25 27 -33 27 -8 0 -22 6
-30 14 -26 22 -65 26 -96 10z"/>
<path d="M2671 1600 c-4 -3 -8 -91 -8 -197 -1 -217 -6 -262 -34 -294 -10 -12
-19 -30 -19 -39 0 -10 -7 -23 -15 -30 -8 -7 -15 -21 -15 -32 0 -19 -46 -67
-65 -68 -5 0 -20 -11 -33 -24 -12 -14 -35 -27 -50 -31 -31 -6 -94 -45 -74 -45
7 0 42 14 77 30 35 17 67 30 70 30 8 0 69 44 73 53 6 12 46 7 66 -8 10 -8 23
-12 27 -9 5 2 3 -9 -3 -27 -14 -40 3 -58 60 -66 23 -3 47 -12 53 -19 6 -8 18
-14 27 -14 8 0 24 -7 34 -17 17 -16 18 -3 18 398 l0 414 -91 0 c-50 0 -94 -2
-98 -5z m117 -37 c-10 -2 -28 -2 -40 0 -13 2 -5 4 17 4 22 1 32 -1 23 -4z m22
-427 c0 -8 -4 -18 -10 -21 -5 -3 -10 3 -10 14 0 12 5 21 10 21 6 0 10 -6 10
-14z m20 -156 c0 -23 -15 -27 -23 -6 -3 8 -16 16 -29 19 -15 3 -10 5 15 6 31
1 37 -2 37 -19z"/>
<path d="M4030 1582 c52 -35 89 -84 95 -126 7 -49 0 -234 -10 -258 -4 -10 -11
-18 -16 -18 -5 0 -9 -9 -9 -20 0 -11 -9 -28 -20 -37 -11 -10 -20 -24 -20 -33
0 -8 -14 -28 -30 -44 -17 -16 -30 -33 -30 -38 0 -4 -6 -8 -12 -8 -7 -1 -24
-14 -38 -30 -13 -17 -29 -30 -35 -30 -6 0 -22 -11 -35 -25 l-24 -26 29 -24
c17 -13 38 -24 49 -25 10 0 38 -13 61 -29 l44 -29 60 65 c34 37 61 72 61 79 0
7 4 15 9 19 19 11 58 94 64 134 3 24 14 52 24 63 25 28 26 137 1 165 -10 11
-18 29 -18 41 0 25 -19 63 -37 75 -7 4 -13 15 -13 25 0 20 -139 152 -160 151
-10 0 -6 -6 10 -17z m-75 -710 c-19 -4 -37 16 -28 31 3 4 14 0 25 -10 18 -16
19 -18 3 -21z"/>
<path d="M1201 1541 c-23 -6 -24 -10 -22 -87 2 -81 2 -82 -47 -139 -48 -54
-137 -107 -222 -132 -43 -13 -41 -13 53 -9 55 2 103 8 110 15 6 6 33 11 60 11
45 0 52 4 93 46 44 46 44 47 44 118 0 48 -5 79 -15 92 -8 10 -15 36 -15 57 0
20 -3 37 -7 36 -5 -1 -19 -4 -32 -8z m34 -210 c3 -5 -3 -17 -12 -27 -11 -11
-18 -13 -21 -5 -9 28 18 55 33 32z"/>
<path d="M578 1213 c-2 -21 -10 -29 -35 -37 -18 -5 -33 -13 -33 -17 0 -5 -11
-9 -24 -9 -13 0 -29 -7 -36 -15 -7 -8 -23 -15 -36 -15 -17 0 -24 -6 -24 -20 0
-11 -4 -20 -10 -20 -5 0 -14 -8 -19 -18 -13 -25 22 -94 59 -115 l27 -17 6 54
c5 54 24 85 60 99 9 3 17 11 17 17 0 5 8 10 19 10 10 0 24 7 31 15 8 10 30 15
61 15 57 0 64 14 14 30 -22 7 -41 23 -50 41 -19 36 -23 36 -27 2z"/>
<path d="M1184 1045 c-10 -8 -35 -15 -55 -15 -20 0 -42 -7 -49 -15 -7 -9 -29
-15 -55 -15 -26 0 -48 -6 -55 -15 -7 -8 -21 -15 -31 -15 -9 0 -24 -7 -33 -15
-8 -8 -30 -15 -50 -15 -19 0 -39 -6 -43 -14 -20 -33 -78 -47 -184 -44 -57 2
-113 7 -124 12 -11 5 -4 -5 15 -22 19 -17 44 -31 56 -32 11 0 36 -7 53 -16 42
-21 163 -21 213 1 21 8 51 15 68 15 18 0 33 6 36 15 4 8 14 15 23 15 10 0 26
7 37 15 10 8 38 15 61 15 23 0 48 7 57 15 8 8 28 15 43 15 16 0 38 7 49 15 45
34 221 12 247 -32 4 -7 14 -13 22 -13 8 0 22 -15 30 -32 9 -18 22 -44 30 -58
8 -14 15 -51 15 -85 0 -59 -1 -61 -54 -116 -29 -31 -63 -60 -75 -64 -11 -3
-21 -11 -21 -16 0 -5 -13 -9 -29 -9 -16 0 -37 -7 -46 -16 -13 -13 -29 -16 -81
-11 -35 2 -66 2 -68 -2 -2 -3 24 -14 57 -24 34 -10 78 -23 97 -29 44 -14 133
-14 138 1 2 6 16 11 30 11 43 1 76 38 97 108 16 53 17 67 6 84 -7 12 -17 47
-21 78 -8 58 -50 163 -69 175 -6 3 -11 12 -11 20 0 17 -60 85 -76 85 -6 0 -17
7 -24 15 -7 8 -20 15 -30 15 -10 0 -23 7 -30 15 -17 21 -139 21 -166 0z m140
-31 c31 -12 15 -20 -41 -21 -53 -2 -56 -1 -39 13 21 15 54 18 80 8z m-264 -74
c0 -5 -9 -10 -20 -10 -11 0 -20 5 -20 10 0 6 9 10 20 10 11 0 20 -4 20 -10z
m-120 -35 c0 -12 -77 -36 -105 -32 l-30 3 35 17 c32 15 100 23 100 12z m618
-315 c-7 -11 -16 -20 -20 -20 -5 0 -3 9 4 20 7 11 16 20 20 20 5 0 3 -9 -4
-20z"/>
<path d="M470 693 c-14 -3 -29 -9 -34 -14 -6 -5 -21 -9 -34 -9 -13 0 -36 -6
-50 -13 -15 -8 -45 -23 -67 -33 -22 -10 -44 -24 -50 -31 -5 -6 -19 -13 -30
-15 -18 -3 -20 -12 -23 -81 -3 -80 2 -89 30 -59 30 31 47 42 67 42 11 0 23 4
26 10 9 15 95 50 122 50 13 0 26 7 29 15 4 10 20 15 44 15 21 0 43 7 50 15 18
21 353 21 390 0 14 -8 34 -14 44 -15 11 0 27 -7 37 -16 10 -9 25 -14 34 -12
10 2 -2 12 -32 28 -26 14 -65 35 -85 48 -21 12 -46 22 -57 22 -10 0 -24 7 -31
15 -7 8 -22 15 -34 15 -11 0 -30 7 -40 15 -15 12 -49 15 -150 14 -72 -1 -142
-4 -156 -6z m208 -42 c4 -11 -4 -13 -35 -9 -22 3 -46 2 -53 -2 -7 -5 -21 -3
-31 3 -13 8 -21 8 -32 -1 -11 -9 -18 -8 -31 7 -17 19 -15 19 80 18 74 -2 98
-5 102 -16z m62 -2 c0 -5 -10 -9 -21 -9 -18 0 -19 2 -9 15 12 15 30 12 30 -6z
m-479 -109 c27 -15 24 -30 -6 -30 -16 0 -25 -6 -25 -15 0 -8 -4 -15 -10 -15
-5 0 -10 16 -10 35 0 37 14 44 51 25z"/>
</g>
</svg>
