<?xml version="1.0" standalone="no"?>
<!DOCTYPE svg PUBLIC "-//W3C//DTD SVG 20010904//EN"
 "http://www.w3.org/TR/2001/REC-SVG-20010904/DTD/svg10.dtd">
<svg version="1.0" xmlns="http://www.w3.org/2000/svg"
 width="299.000000pt" height="183.000000pt" viewBox="0 0 299.000000 183.000000"
 preserveAspectRatio="xMidYMid meet">
<metadata>
Created by potrace 1.12, written by Peter Selinger 2001-2015
</metadata>
<g transform="translate(0.000000,183.000000) scale(0.100000,-0.100000)"
fill="#000000" stroke="none">
<path d="M1762 1617 c-27 -28 -28 -58 -4 -86 42 -51 132 -24 132 40 0 64 -83
94 -128 46z"/>
<path d="M2014 1629 l-41 -10 5 -267 c2 -147 9 -275 14 -285 16 -31 58 -51
108 -50 27 0 53 4 58 7 15 9 -6 66 -24 66 -29 0 -34 41 -34 294 l0 256 -22 -1
c-13 -1 -41 -5 -64 -10z"/>
<path d="M2265 1629 l-40 -9 3 -273 c4 -260 5 -273 25 -295 26 -28 77 -42 122
-35 27 4 35 10 35 27 0 25 -8 37 -35 52 -19 11 -20 24 -25 275 -6 297 1 278
-85 258z"/>
<path d="M170 1446 c-26 -10 -34 -18 -31 -32 2 -11 3 -101 3 -201 l-1 -183 65
0 64 0 0 158 0 158 33 12 c80 29 87 15 87 -177 l0 -151 55 0 55 0 0 150 0 150
33 20 c17 11 43 19 57 18 l25 -3 3 -167 2 -168 60 0 60 0 0 181 c0 104 -4 188
-10 200 -29 53 -135 65 -208 23 -24 -15 -47 -22 -51 -17 -29 43 -116 56 -178
26 -33 -15 -36 -15 -45 0 -11 20 -30 20 -78 3z"/>
<path d="M935 1444 c-78 -40 -119 -113 -118 -211 1 -73 28 -130 86 -177 37
-29 43 -31 127 -31 84 0 90 2 127 31 63 52 78 86 78 186 0 80 -2 89 -30 130
-44 62 -95 88 -175 88 -40 0 -77 -6 -95 -16z m147 -95 c32 -38 35 -150 6 -214
-20 -44 -96 -46 -119 -4 -15 29 -15 179 0 208 24 43 80 48 113 10z"/>
<path d="M1780 1451 l-25 -7 -3 -207 -2 -207 65 0 65 0 0 215 0 215 -37 -1
c-21 -1 -49 -4 -63 -8z"/>
<path d="M2590 1453 c-39 -12 -120 -46 -120 -49 0 -1 9 -19 21 -38 24 -40 32
-43 78 -20 45 22 107 29 126 14 8 -7 15 -25 15 -41 0 -27 -3 -29 -40 -29 -74
0 -141 -21 -179 -55 -33 -30 -36 -38 -36 -87 0 -39 6 -61 22 -84 39 -54 149
-71 225 -34 l41 19 30 -25 30 -25 36 35 35 35 -22 24 c-20 22 -22 33 -22 158
0 147 -6 166 -60 194 -28 14 -146 20 -180 8z"/>
<path d="M1310 1410 l0 -40 95 0 c53 0 95 -4 95 -10 0 -5 -45 -65 -100 -134
-84 -106 -100 -131 -100 -161 l0 -35 173 0 174 0 10 35 11 35 -97 0 c-54 0
-101 3 -104 7 -4 3 8 25 27 47 18 23 63 81 100 130 54 74 66 96 66 128 l0 38
-175 0 -175 0 0 -40z"/>
<path d="M150 955 l0 -25 168 -2 167 -3 0 -45 0 -45 -55 -6 c-97 -10 -127 -19
-154 -44 -34 -31 -38 -111 -6 -140 28 -26 26 -32 -24 -56 -90 -42 -92 -75 -11
-137 79 -60 142 -64 273 -16 37 14 97 28 134 31 65 6 68 5 98 -25 68 -69 13
-169 -99 -180 -44 -4 -58 0 -134 41 -148 79 -233 84 -364 19 -52 -26 -53 -27
-53 -69 0 -24 2 -43 4 -43 2 0 24 12 50 26 69 39 163 64 236 64 66 0 136 -19
227 -62 65 -30 159 -30 184 1 24 29 34 84 20 109 -6 12 -11 30 -11 41 0 12
-15 44 -32 71 -24 37 -44 54 -75 66 -52 20 -90 15 -210 -27 -131 -46 -168 -53
-204 -43 -18 5 -37 17 -43 27 -9 15 -5 23 21 47 40 36 89 50 175 50 149 0 218
35 218 111 0 21 -4 41 -10 44 -13 8 -13 42 1 50 20 13 59 -5 65 -30 8 -31 17
-32 38 0 22 33 21 38 -13 58 -40 23 -63 21 -91 -8 -48 -51 -74 -25 -68 71 l3
49 135 0 135 0 3 -170 c2 -153 4 -174 24 -214 65 -127 256 -166 405 -83 31 17
43 15 43 -7 0 -13 13 -24 43 -34 23 -8 50 -18 60 -22 16 -7 17 7 17 209 l0
216 -60 0 -60 0 0 -124 c0 -123 0 -124 -32 -172 -19 -28 -50 -58 -73 -71 -54
-29 -136 -30 -181 -2 -59 36 -65 61 -62 280 l3 194 660 0 660 0 3 -79 c3 -70
1 -80 -18 -93 -27 -19 -26 -37 3 -29 112 33 181 46 243 46 64 0 76 -3 104 -26
23 -20 30 -34 28 -53 -3 -29 -4 -29 -97 -6 -57 14 -70 15 -130 1 -94 -21 -134
-40 -181 -84 -42 -41 -52 -81 -30 -122 15 -29 71 -58 140 -74 54 -13 74 -13
140 -2 42 8 92 22 110 31 24 12 35 14 38 6 3 -9 76 -51 89 -51 9 0 0 281 -10
326 -15 67 -48 97 -124 113 -52 11 -70 11 -125 -3 -100 -25 -99 -25 -96 42 l3
57 205 5 c197 5 205 6 205 25 0 20 -8 20 -1323 23 l-1322 2 0 -25z m418 -175
c33 -31 29 -74 -11 -115 -44 -45 -111 -75 -170 -75 -39 0 -52 5 -72 26 -34 37
-32 75 6 114 50 49 97 69 165 70 47 0 65 -4 82 -20z m2016 -165 c50 -15 76
-31 76 -46 0 -16 -41 -47 -107 -79 -57 -27 -81 -33 -163 -37 -77 -5 -102 -2
-128 11 -18 9 -32 21 -32 27 0 28 47 71 112 103 81 41 155 47 242 21z"/>
<path d="M1815 841 c-34 -9 -87 -35 -127 -62 -35 -25 -36 -25 -40 19 -3 36 -4
37 -41 37 l-38 0 0 -199 c0 -109 1 -200 3 -201 7 -6 67 -35 73 -35 3 0 5 48 5
107 0 123 15 165 81 231 78 79 179 103 259 62 51 -26 60 -45 60 -126 0 -79
-25 -126 -96 -184 -23 -19 -43 -38 -43 -41 -1 -3 22 -18 51 -33 l51 -27 33 32
c33 32 65 89 84 152 29 95 -54 223 -169 260 -56 18 -96 20 -146 8z"/>
</g>
</svg>
